<svg xmlns="http://www.w3.org/2000/svg" xmlns:xlink="http://www.w3.org/1999/xlink" width="1270" zoomAndPan="magnify" viewBox="0 0 952.5 213" height="284" preserveAspectRatio="xMidYMid meet" version="1.0"><defs><g/><clipPath id="3c1bc6f14d"><path d="M 896 36 L 951.425781 36 L 951.425781 108 L 896 108 Z M 896 36 " clip-rule="nonzero"/></clipPath><clipPath id="fc8525766c"><path d="M 846 43 L 913 43 L 913 141.730469 L 846 141.730469 Z M 846 43 " clip-rule="nonzero"/></clipPath><clipPath id="5b1b37ff69"><path d="M 831 0.0546875 L 930 0.0546875 L 930 37 L 831 37 Z M 831 0.0546875 " clip-rule="nonzero"/></clipPath><clipPath id="91dc961a79"><rect x="0" width="753" y="0" height="118"/></clipPath></defs><path fill="#100f0d" d="M 836.621094 46.796875 C 841.265625 59.113281 845.816406 71.179688 850.390625 83.308594 L 822.863281 83.308594 C 827.425781 71.207031 831.976562 59.125 836.621094 46.796875 Z M 856.15625 83.308594 C 853.710938 76.707031 851.230469 70.117188 848.75 63.53125 C 845.640625 55.273438 842.515625 47.027344 839.40625 38.773438 C 838.84375 37.28125 837.890625 36.449219 836.667969 36.453125 C 835.316406 36.457031 834.457031 37.171875 833.851562 38.777344 C 832.476562 42.40625 831.097656 46.035156 829.726562 49.667969 C 827.472656 55.625 825.222656 61.582031 822.976562 67.542969 C 820.996094 72.796875 819.011719 78.050781 817.046875 83.308594 L 809.03125 83.308594 C 809.03125 83.425781 809.019531 83.542969 809.019531 83.664062 C 809.019531 96.976562 821.355469 107.773438 836.570312 107.773438 C 851.785156 107.773438 864.117188 96.976562 864.117188 83.664062 C 864.117188 83.542969 864.109375 83.425781 864.109375 83.308594 L 856.15625 83.308594 " fill-opacity="1" fill-rule="nonzero"/><g clip-path="url(#3c1bc6f14d)"><path fill="#100f0d" d="M 923.882812 46.800781 C 928.515625 59.09375 933.066406 71.148438 937.652344 83.308594 L 910.117188 83.308594 C 914.683594 71.203125 919.230469 59.136719 923.882812 46.800781 Z M 951.476562 83.308594 L 943.464844 83.308594 C 942.664062 81.15625 941.863281 79 941.050781 76.851562 C 937.503906 67.472656 933.953125 58.101562 930.402344 48.726562 C 929.109375 45.304688 927.832031 41.878906 926.527344 38.46875 C 926.015625 37.140625 925.058594 36.425781 923.933594 36.449219 C 922.675781 36.480469 921.707031 37.15625 921.253906 38.347656 C 918.832031 44.765625 916.40625 51.183594 913.992188 57.601562 C 910.773438 66.167969 907.542969 74.730469 904.363281 83.308594 L 896.398438 83.308594 C 896.398438 83.425781 896.386719 83.542969 896.386719 83.664062 C 896.386719 96.976562 908.722656 107.773438 923.9375 107.773438 C 939.152344 107.773438 951.484375 96.976562 951.484375 83.664062 C 951.484375 83.542969 951.476562 83.425781 951.476562 83.308594 " fill-opacity="1" fill-rule="nonzero"/></g><g clip-path="url(#fc8525766c)"><path fill="#100f0d" d="M 912.933594 137.425781 L 912.933594 134.371094 C 912.933594 131.449219 910.570312 129.082031 907.652344 129.082031 L 896.40625 129.082031 C 895.441406 123.160156 892.261719 118.828125 886.589844 116.347656 C 885.863281 116.027344 885.664062 115.652344 885.664062 114.914062 C 885.679688 94.285156 885.679688 73.652344 885.664062 53.019531 C 885.664062 52.355469 885.851562 51.929688 886.390625 51.503906 C 888.949219 49.480469 890.371094 46.855469 890.441406 43.367188 C 883.589844 43.367188 876.863281 43.367188 870.074219 43.367188 C 870.128906 46.875 871.605469 49.484375 874.15625 51.589844 C 874.5 51.871094 874.800781 52.4375 874.804688 52.875 C 874.832031 73.582031 874.828125 94.285156 874.84375 114.996094 C 874.84375 115.710938 874.59375 116.046875 873.929688 116.328125 C 869.3125 118.261719 866.25 121.671875 864.710938 126.421875 C 864.4375 127.273438 864.253906 128.164062 864.074219 129.082031 L 852.164062 129.082031 C 849.246094 129.082031 846.882812 131.449219 846.882812 134.371094 L 846.882812 141.53125 L 912.933594 141.53125 L 912.933594 141.515625 C 912.933594 140.121094 912.945312 138.773438 912.933594 137.425781 " fill-opacity="1" fill-rule="nonzero"/></g><g clip-path="url(#5b1b37ff69)"><path fill="#100f0d" d="M 879.910156 31.59375 C 877.582031 31.59375 875.695312 29.703125 875.695312 27.375 C 875.695312 25.042969 877.582031 23.152344 879.910156 23.152344 C 882.238281 23.152344 884.128906 25.042969 884.128906 27.375 C 884.128906 29.703125 882.238281 31.59375 879.910156 31.59375 Z M 928.722656 24.363281 C 927.441406 21.855469 924.117188 20.480469 921.671875 22.058594 C 919.800781 23.269531 918.59375 22.605469 917.105469 21.886719 C 916.730469 21.707031 916.359375 21.519531 915.992188 21.332031 C 912.125 19.363281 908.226562 17.480469 903.941406 16.578125 C 901.402344 16.039062 898.878906 15.890625 896.300781 16.296875 C 893.019531 16.820312 890.164062 18.214844 887.699219 20.1875 C 886.316406 19.261719 885.015625 18.390625 883.664062 17.488281 C 883.90625 17.269531 884.144531 17.042969 884.394531 16.835938 C 886.382812 15.164062 887.199219 12.664062 886.332031 10.210938 C 885.011719 6.476562 882.664062 3.339844 880.339844 0.171875 C 878.898438 1.570312 875.65625 6.683594 874.648438 8.929688 C 873.871094 10.652344 873.464844 12.449219 874.238281 14.183594 C 874.804688 15.441406 875.816406 16.496094 876.625 17.628906 C 875.503906 18.378906 874.203125 19.25 872.800781 20.183594 C 868.664062 16.84375 863.882812 15.523438 858.570312 16.222656 C 855.339844 16.644531 852.253906 17.640625 849.300781 19.011719 C 846.667969 20.234375 844.082031 21.558594 841.445312 22.765625 C 841.070312 22.941406 840.386719 22.898438 840.0625 22.664062 C 837.425781 20.75 834.046875 21.199219 832.140625 23.78125 C 830.402344 26.132812 831 29.601562 833.457031 31.441406 C 835.761719 33.160156 839.488281 32.664062 841.019531 30.074219 C 841.945312 28.507812 843.292969 27.957031 844.699219 27.265625 C 845.308594 26.96875 845.921875 26.6875 846.53125 26.386719 C 850.121094 24.640625 853.648438 22.78125 857.601562 21.90625 C 862.144531 20.902344 866.210938 21.679688 869.742188 24.769531 C 870.105469 25.09375 870.328125 25.695312 870.417969 26.207031 C 870.648438 27.449219 870.582031 28.773438 870.953125 29.964844 C 872.476562 34.835938 877.210938 37.585938 882.214844 36.621094 C 887.007812 35.703125 890.410156 31.171875 890.089844 26.210938 C 890.0625 25.789062 890.285156 25.21875 890.59375 24.929688 C 893.300781 22.421875 896.539062 21.230469 900.207031 21.5 C 903.429688 21.742188 906.46875 22.769531 909.382812 24.15625 C 912.304688 25.546875 915.238281 26.925781 918.152344 28.347656 C 918.433594 28.484375 918.675781 28.835938 918.816406 29.144531 C 920.171875 32.074219 923.855469 33.320312 926.558594 31.738281 C 929.15625 30.21875 930.089844 27.042969 928.722656 24.363281 " fill-opacity="1" fill-rule="nonzero"/></g><g transform="matrix(1, 0, 0, 1, 36, 48)"><g clip-path="url(#91dc961a79)"><g fill="#000000" fill-opacity="1"><g transform="translate(0.414876, 87.790304)"><g><path d="M 29.546875 -85.890625 L 29.546875 -19.921875 L 65.390625 -19.921875 L 65.390625 0 L 6.640625 0 L 6.640625 -85.890625 Z M 29.546875 -85.890625 "/></g></g></g><g fill="#000000" fill-opacity="1"><g transform="translate(67.404607, 87.790304)"><g><path d="M 23.125 -37.5625 L 42.484375 -37.5625 C 42.484375 -40.539062 42.117188 -42.695312 41.390625 -44.03125 C 40.671875 -45.363281 39.566406 -46.203125 38.078125 -46.546875 C 36.585938 -46.890625 34.734375 -47.0625 32.515625 -47.0625 C 29.003906 -47.0625 26.597656 -46.46875 25.296875 -45.28125 C 24.003906 -44.101562 23.28125 -41.53125 23.125 -37.5625 Z M 42.828125 -20.046875 L 62.1875 -20.046875 C 62.1875 -15.535156 61.476562 -11.925781 60.0625 -9.21875 C 58.644531 -6.507812 56.640625 -4.390625 54.046875 -2.859375 C 51.453125 -1.410156 48.359375 -0.457031 44.765625 0 C 41.179688 0.457031 37.210938 0.6875 32.859375 0.6875 C 25.003906 0.6875 18.9375 -0.300781 14.65625 -2.28125 C 10.382812 -4.269531 7.445312 -7.515625 5.84375 -12.015625 C 4.238281 -16.523438 3.4375 -22.519531 3.4375 -30 C 3.4375 -35.800781 3.851562 -40.664062 4.6875 -44.59375 C 5.53125 -48.53125 7 -51.679688 9.09375 -54.046875 C 11.195312 -56.410156 14.175781 -58.128906 18.03125 -59.203125 C 21.882812 -60.273438 26.828125 -60.8125 32.859375 -60.8125 C 38.515625 -60.8125 43.226562 -60.351562 47 -59.4375 C 50.78125 -58.519531 53.773438 -56.914062 55.984375 -54.625 C 58.203125 -52.332031 59.789062 -49.179688 60.75 -45.171875 C 61.707031 -41.171875 62.1875 -36.113281 62.1875 -30 L 62.1875 -26.6875 L 23.125 -26.6875 C 23.125 -23.175781 23.375 -20.425781 23.875 -18.4375 C 24.375 -16.445312 25.3125 -15.050781 26.6875 -14.25 C 28.0625 -13.457031 30.117188 -13.0625 32.859375 -13.0625 C 35.921875 -13.0625 38.347656 -13.441406 40.140625 -14.203125 C 41.929688 -14.960938 42.828125 -16.910156 42.828125 -20.046875 Z M 42.828125 -20.046875 "/></g></g></g><g fill="#000000" fill-opacity="1"><g transform="translate(133.134688, 87.790304)"><g><path d="M 33.78125 -15.109375 C 36.988281 -15.109375 39.335938 -15.644531 40.828125 -16.71875 C 42.316406 -17.789062 43.25 -19.410156 43.625 -21.578125 C 44.007812 -23.753906 44.203125 -26.5625 44.203125 -30 C 44.203125 -34.582031 43.914062 -37.976562 43.34375 -40.1875 C 42.769531 -42.40625 41.71875 -43.875 40.1875 -44.59375 C 38.664062 -45.320312 36.53125 -45.6875 33.78125 -45.6875 C 30.726562 -45.6875 28.492188 -45.34375 27.078125 -44.65625 C 25.671875 -43.96875 24.753906 -42.515625 24.328125 -40.296875 C 23.910156 -38.085938 23.703125 -34.65625 23.703125 -30 C 23.703125 -25.875 23.945312 -22.742188 24.4375 -20.609375 C 24.9375 -18.472656 25.910156 -17.019531 27.359375 -16.25 C 28.816406 -15.488281 30.957031 -15.109375 33.78125 -15.109375 Z M 6.40625 5.375 L 25.078125 5.375 C 25.078125 7.0625 25.320312 8.378906 25.8125 9.328125 C 26.3125 10.285156 26.984375 10.992188 27.828125 11.453125 C 28.671875 11.835938 29.601562 12.085938 30.625 12.203125 C 31.65625 12.316406 32.742188 12.375 33.890625 12.375 C 36.722656 12.375 38.878906 12.144531 40.359375 11.6875 C 41.847656 11.226562 42.859375 10.289062 43.390625 8.875 C 43.929688 7.457031 44.203125 5.378906 44.203125 2.640625 L 44.203125 -9.84375 L 43.515625 -9.84375 C 42.296875 -6.101562 40.210938 -3.523438 37.265625 -2.109375 C 34.328125 -0.703125 30.953125 0 27.140625 0 C 21.796875 0 17.578125 -0.757812 14.484375 -2.28125 C 11.390625 -3.8125 9.097656 -5.929688 7.609375 -8.640625 C 6.117188 -11.359375 5.144531 -14.53125 4.6875 -18.15625 C 4.238281 -21.78125 4.015625 -25.726562 4.015625 -30 C 4.015625 -34.882812 4.257812 -39.234375 4.75 -43.046875 C 5.25 -46.867188 6.257812 -50.097656 7.78125 -52.734375 C 9.3125 -55.367188 11.625 -57.375 14.71875 -58.75 C 17.8125 -60.125 21.953125 -60.8125 27.140625 -60.8125 C 31.410156 -60.8125 35.015625 -60.082031 37.953125 -58.625 C 40.898438 -57.175781 42.984375 -54.125 44.203125 -49.46875 L 44.890625 -49.46875 L 44.203125 -60.125 L 63.90625 -60.125 L 63.90625 -2.640625 C 63.90625 4.847656 63.0625 10.726562 61.375 15 C 59.695312 19.28125 56.738281 22.296875 52.5 24.046875 C 48.269531 25.804688 42.296875 26.6875 34.578125 26.6875 C 29.234375 26.6875 24.785156 26.457031 21.234375 26 C 17.691406 25.539062 14.867188 24.601562 12.765625 23.1875 C 10.671875 21.78125 9.125 19.644531 8.125 16.78125 C 7.132812 13.914062 6.5625 10.113281 6.40625 5.375 Z M 6.40625 5.375 "/></g></g></g><g fill="#000000" fill-opacity="1"><g transform="translate(203.559768, 87.790304)"><g><path d="M 32.984375 -24.84375 C 30.617188 -24.84375 28.59375 -24.476562 26.90625 -23.75 C 25.226562 -23.03125 24.390625 -21.296875 24.390625 -18.546875 C 24.390625 -16.410156 24.90625 -14.882812 25.9375 -13.96875 C 26.96875 -13.050781 28.148438 -12.5 29.484375 -12.3125 C 30.816406 -12.125 31.984375 -12.03125 32.984375 -12.03125 C 37.109375 -12.03125 39.929688 -12.46875 41.453125 -13.34375 C 42.984375 -14.21875 43.75 -16.222656 43.75 -19.359375 C 43.75 -21.867188 42.753906 -23.410156 40.765625 -23.984375 C 38.785156 -24.554688 36.191406 -24.84375 32.984375 -24.84375 Z M 43.75 0 L 44.4375 -8.9375 L 43.75 -8.9375 C 43.289062 -6.1875 42.101562 -4.125 40.1875 -2.75 C 38.28125 -1.375 36.085938 -0.457031 33.609375 0 C 31.128906 0.457031 28.742188 0.6875 26.453125 0.6875 C 21.867188 0.6875 17.953125 0.191406 14.703125 -0.796875 C 11.460938 -1.796875 8.984375 -3.628906 7.265625 -6.296875 C 5.546875 -8.972656 4.6875 -12.867188 4.6875 -17.984375 C 4.6875 -25.234375 6.535156 -30.191406 10.234375 -32.859375 C 13.941406 -35.535156 19.347656 -36.875 26.453125 -36.875 C 28.359375 -36.875 30.4375 -36.796875 32.6875 -36.640625 C 34.945312 -36.492188 37.03125 -35.941406 38.9375 -34.984375 C 40.84375 -34.023438 42.140625 -32.40625 42.828125 -30.125 L 43.75 -30.125 L 43.75 -39.625 C 43.75 -41.53125 43.59375 -43.148438 43.28125 -44.484375 C 42.976562 -45.828125 42.21875 -46.878906 41 -47.640625 C 39.78125 -48.398438 37.71875 -48.78125 34.8125 -48.78125 C 32.363281 -48.78125 30.414062 -48.359375 28.96875 -47.515625 C 27.519531 -46.679688 26.796875 -44.925781 26.796875 -42.25 L 7.09375 -42.25 C 7.09375 -46.90625 7.859375 -50.515625 9.390625 -53.078125 C 10.921875 -55.640625 13 -57.453125 15.625 -58.515625 C 18.257812 -59.585938 21.238281 -60.238281 24.5625 -60.46875 C 27.882812 -60.695312 31.300781 -60.8125 34.8125 -60.8125 C 39.851562 -60.8125 44.1875 -60.5625 47.8125 -60.0625 C 51.4375 -59.5625 54.394531 -58.53125 56.6875 -56.96875 C 58.976562 -55.40625 60.675781 -53.078125 61.78125 -49.984375 C 62.882812 -46.890625 63.4375 -42.75 63.4375 -37.5625 L 63.4375 0 Z M 43.75 0 "/></g></g></g><g fill="#000000" fill-opacity="1"><g transform="translate(273.297778, 87.790304)"><g><path d="M 26.453125 -85.890625 L 26.453125 0 L 6.75 0 L 6.75 -85.890625 Z M 26.453125 -85.890625 "/></g></g></g><g fill="#000000" fill-opacity="1"><g transform="translate(306.391842, 87.790304)"><g><path d="M 45 -65.96875 L 45 0 L 22.09375 0 L 22.09375 -65.96875 L 0.109375 -65.96875 L 0.109375 -85.890625 L 68.140625 -85.890625 L 68.140625 -65.96875 Z M 45 -65.96875 "/></g></g></g><g fill="#000000" fill-opacity="1"><g transform="translate(369.717156, 87.790304)"><g><path d="M 38.359375 -33.890625 L 38.359375 -36.765625 C 38.359375 -38.210938 38.300781 -39.601562 38.1875 -40.9375 C 38.070312 -42.269531 37.671875 -43.394531 36.984375 -44.3125 C 36.296875 -45.226562 35.035156 -45.6875 33.203125 -45.6875 C 30.234375 -45.6875 28.269531 -44.691406 27.3125 -42.703125 C 26.351562 -40.722656 25.875 -38.515625 25.875 -36.078125 L 25.875 0 L 6.1875 0 L 6.1875 -60.125 L 25.3125 -60.125 L 25.3125 -51.296875 L 26.109375 -51.296875 C 27.484375 -54.660156 29.429688 -57.101562 31.953125 -58.625 C 34.390625 -60.082031 37.476562 -60.8125 41.21875 -60.8125 C 44.65625 -60.8125 47.363281 -60.179688 49.34375 -58.921875 C 51.332031 -57.660156 52.820312 -55.957031 53.8125 -53.8125 C 54.8125 -51.675781 55.441406 -49.289062 55.703125 -46.65625 C 55.972656 -44.03125 56.109375 -41.34375 56.109375 -38.59375 L 56.109375 -33.890625 Z M 38.359375 -33.890625 "/></g></g></g><g fill="#000000" fill-opacity="1"><g transform="translate(427.087823, 87.790304)"><g><path d="M 32.984375 -24.84375 C 30.617188 -24.84375 28.59375 -24.476562 26.90625 -23.75 C 25.226562 -23.03125 24.390625 -21.296875 24.390625 -18.546875 C 24.390625 -16.410156 24.90625 -14.882812 25.9375 -13.96875 C 26.96875 -13.050781 28.148438 -12.5 29.484375 -12.3125 C 30.816406 -12.125 31.984375 -12.03125 32.984375 -12.03125 C 37.109375 -12.03125 39.929688 -12.46875 41.453125 -13.34375 C 42.984375 -14.21875 43.75 -16.222656 43.75 -19.359375 C 43.75 -21.867188 42.753906 -23.410156 40.765625 -23.984375 C 38.785156 -24.554688 36.191406 -24.84375 32.984375 -24.84375 Z M 43.75 0 L 44.4375 -8.9375 L 43.75 -8.9375 C 43.289062 -6.1875 42.101562 -4.125 40.1875 -2.75 C 38.28125 -1.375 36.085938 -0.457031 33.609375 0 C 31.128906 0.457031 28.742188 0.6875 26.453125 0.6875 C 21.867188 0.6875 17.953125 0.191406 14.703125 -0.796875 C 11.460938 -1.796875 8.984375 -3.628906 7.265625 -6.296875 C 5.546875 -8.972656 4.6875 -12.867188 4.6875 -17.984375 C 4.6875 -25.234375 6.535156 -30.191406 10.234375 -32.859375 C 13.941406 -35.535156 19.347656 -36.875 26.453125 -36.875 C 28.359375 -36.875 30.4375 -36.796875 32.6875 -36.640625 C 34.945312 -36.492188 37.03125 -35.941406 38.9375 -34.984375 C 40.84375 -34.023438 42.140625 -32.40625 42.828125 -30.125 L 43.75 -30.125 L 43.75 -39.625 C 43.75 -41.53125 43.59375 -43.148438 43.28125 -44.484375 C 42.976562 -45.828125 42.21875 -46.878906 41 -47.640625 C 39.78125 -48.398438 37.71875 -48.78125 34.8125 -48.78125 C 32.363281 -48.78125 30.414062 -48.359375 28.96875 -47.515625 C 27.519531 -46.679688 26.796875 -44.925781 26.796875 -42.25 L 7.09375 -42.25 C 7.09375 -46.90625 7.859375 -50.515625 9.390625 -53.078125 C 10.921875 -55.640625 13 -57.453125 15.625 -58.515625 C 18.257812 -59.585938 21.238281 -60.238281 24.5625 -60.46875 C 27.882812 -60.695312 31.300781 -60.8125 34.8125 -60.8125 C 39.851562 -60.8125 44.1875 -60.5625 47.8125 -60.0625 C 51.4375 -59.5625 54.394531 -58.53125 56.6875 -56.96875 C 58.976562 -55.40625 60.675781 -53.078125 61.78125 -49.984375 C 62.882812 -46.890625 63.4375 -42.75 63.4375 -37.5625 L 63.4375 0 Z M 43.75 0 "/></g></g></g><g fill="#000000" fill-opacity="1"><g transform="translate(496.825833, 87.790304)"><g><path d="M 41.6875 -24.046875 L 61.375 -24.046875 C 61.375 -18.472656 60.859375 -14.046875 59.828125 -10.765625 C 58.796875 -7.484375 57.097656 -5.003906 54.734375 -3.328125 C 52.441406 -1.640625 49.460938 -0.546875 45.796875 -0.046875 C 42.140625 0.441406 37.640625 0.6875 32.296875 0.6875 C 26.492188 0.6875 21.722656 0.191406 17.984375 -0.796875 C 14.242188 -1.796875 11.320312 -3.457031 9.21875 -5.78125 C 7.113281 -8.113281 5.640625 -11.242188 4.796875 -15.171875 C 3.960938 -19.109375 3.546875 -24.050781 3.546875 -30 C 3.546875 -35.113281 3.90625 -39.578125 4.625 -43.390625 C 5.351562 -47.210938 6.710938 -50.421875 8.703125 -53.015625 C 10.691406 -55.617188 13.570312 -57.566406 17.34375 -58.859375 C 21.125 -60.160156 26.109375 -60.8125 32.296875 -60.8125 C 36.648438 -60.8125 40.597656 -60.582031 44.140625 -60.125 C 47.691406 -59.664062 50.742188 -58.691406 53.296875 -57.203125 C 55.859375 -55.710938 57.84375 -53.398438 59.25 -50.265625 C 60.664062 -47.140625 61.375 -42.90625 61.375 -37.5625 L 41.6875 -37.5625 C 41.757812 -40.769531 41.222656 -42.90625 40.078125 -43.96875 C 38.859375 -45.113281 36.265625 -45.6875 32.296875 -45.6875 C 30.003906 -45.6875 28.1875 -45.34375 26.84375 -44.65625 C 25.507812 -43.96875 24.578125 -42.5 24.046875 -40.25 C 23.515625 -38 23.25 -34.582031 23.25 -30 C 23.25 -25.34375 23.476562 -21.90625 23.9375 -19.6875 C 24.394531 -17.476562 25.269531 -16.046875 26.5625 -15.390625 C 27.863281 -14.742188 29.773438 -14.421875 32.296875 -14.421875 C 35.273438 -14.421875 37.429688 -14.707031 38.765625 -15.28125 C 40.097656 -15.851562 40.914062 -16.847656 41.21875 -18.265625 C 41.53125 -19.679688 41.6875 -21.609375 41.6875 -24.046875 Z M 41.6875 -24.046875 "/></g></g></g><g fill="#000000" fill-opacity="1"><g transform="translate(560.609195, 87.790304)"><g><path d="M 26 -85.890625 L 26 -37.5625 L 29.4375 -37.5625 L 41.34375 -60.125 L 62.984375 -60.125 L 46.03125 -31.265625 L 66.875 0 L 43.859375 0 L 29.4375 -24.390625 L 26 -24.390625 L 26 0 L 6.296875 0 L 6.296875 -85.890625 Z M 26 -85.890625 "/></g></g></g><g fill="#000000" fill-opacity="1"><g transform="translate(628.400487, 87.790304)"><g><path d="M 23.125 -37.5625 L 42.484375 -37.5625 C 42.484375 -40.539062 42.117188 -42.695312 41.390625 -44.03125 C 40.671875 -45.363281 39.566406 -46.203125 38.078125 -46.546875 C 36.585938 -46.890625 34.734375 -47.0625 32.515625 -47.0625 C 29.003906 -47.0625 26.597656 -46.46875 25.296875 -45.28125 C 24.003906 -44.101562 23.28125 -41.53125 23.125 -37.5625 Z M 42.828125 -20.046875 L 62.1875 -20.046875 C 62.1875 -15.535156 61.476562 -11.925781 60.0625 -9.21875 C 58.644531 -6.507812 56.640625 -4.390625 54.046875 -2.859375 C 51.453125 -1.410156 48.359375 -0.457031 44.765625 0 C 41.179688 0.457031 37.210938 0.6875 32.859375 0.6875 C 25.003906 0.6875 18.9375 -0.300781 14.65625 -2.28125 C 10.382812 -4.269531 7.445312 -7.515625 5.84375 -12.015625 C 4.238281 -16.523438 3.4375 -22.519531 3.4375 -30 C 3.4375 -35.800781 3.851562 -40.664062 4.6875 -44.59375 C 5.53125 -48.53125 7 -51.679688 9.09375 -54.046875 C 11.195312 -56.410156 14.175781 -58.128906 18.03125 -59.203125 C 21.882812 -60.273438 26.828125 -60.8125 32.859375 -60.8125 C 38.515625 -60.8125 43.226562 -60.351562 47 -59.4375 C 50.78125 -58.519531 53.773438 -56.914062 55.984375 -54.625 C 58.203125 -52.332031 59.789062 -49.179688 60.75 -45.171875 C 61.707031 -41.171875 62.1875 -36.113281 62.1875 -30 L 62.1875 -26.6875 L 23.125 -26.6875 C 23.125 -23.175781 23.375 -20.425781 23.875 -18.4375 C 24.375 -16.445312 25.3125 -15.050781 26.6875 -14.25 C 28.0625 -13.457031 30.117188 -13.0625 32.859375 -13.0625 C 35.921875 -13.0625 38.347656 -13.441406 40.140625 -14.203125 C 41.929688 -14.960938 42.828125 -16.910156 42.828125 -20.046875 Z M 42.828125 -20.046875 "/></g></g></g><g fill="#000000" fill-opacity="1"><g transform="translate(694.130568, 87.790304)"><g><path d="M 38.359375 -33.890625 L 38.359375 -36.765625 C 38.359375 -38.210938 38.300781 -39.601562 38.1875 -40.9375 C 38.070312 -42.269531 37.671875 -43.394531 36.984375 -44.3125 C 36.296875 -45.226562 35.035156 -45.6875 33.203125 -45.6875 C 30.234375 -45.6875 28.269531 -44.691406 27.3125 -42.703125 C 26.351562 -40.722656 25.875 -38.515625 25.875 -36.078125 L 25.875 0 L 6.1875 0 L 6.1875 -60.125 L 25.3125 -60.125 L 25.3125 -51.296875 L 26.109375 -51.296875 C 27.484375 -54.660156 29.429688 -57.101562 31.953125 -58.625 C 34.390625 -60.082031 37.476562 -60.8125 41.21875 -60.8125 C 44.65625 -60.8125 47.363281 -60.179688 49.34375 -58.921875 C 51.332031 -57.660156 52.820312 -55.957031 53.8125 -53.8125 C 54.8125 -51.675781 55.441406 -49.289062 55.703125 -46.65625 C 55.972656 -44.03125 56.109375 -41.34375 56.109375 -38.59375 L 56.109375 -33.890625 Z M 38.359375 -33.890625 "/></g></g></g></g></g></svg>