<svg xmlns="http://www.w3.org/2000/svg" xmlns:xlink="http://www.w3.org/1999/xlink" width="1307" zoomAndPan="magnify" viewBox="0 0 980.25 234.749995" height="313" preserveAspectRatio="xMidYMid meet" version="1.0"><defs><g/><clipPath id="6239f8210f"><path d="M 0.148438 0 L 979.355469 0 L 979.355469 234.5 L 0.148438 234.5 Z M 0.148438 0 " clip-rule="nonzero"/></clipPath><clipPath id="fad86d7129"><path d="M 897.769531 70.25 L 978.683594 70.25 L 978.683594 151.164062 L 897.769531 151.164062 Z M 897.769531 70.25 " clip-rule="nonzero"/></clipPath><clipPath id="f559709070"><rect x="0" width="848" y="0" height="133"/></clipPath></defs><g clip-path="url(#6239f8210f)"><path fill="#ffffff" d="M 0.148438 0 L 979.355469 0 L 979.355469 234.5 L 0.148438 234.5 Z M 0.148438 0 " fill-opacity="1" fill-rule="nonzero"/></g><path fill="#000000" d="M 938.824219 110.722656 C 943.460938 110.722656 946.496094 108.203125 946.496094 103.5625 C 946.496094 98.925781 943.460938 96.691406 938.707031 96.691406 L 931.320312 96.691406 L 931.320312 110.722656 Z M 924.734375 90.679688 L 939.109375 90.679688 C 947.699219 90.679688 953.195312 95.261719 953.195312 103.449219 C 953.195312 109.632812 949.761719 113.527344 944.890625 115.246094 L 954.285156 130.765625 L 946.609375 130.765625 L 938.136719 116.621094 C 938.078125 116.5625 936.015625 116.621094 935.960938 116.621094 L 931.320312 116.621094 L 931.320312 130.765625 L 924.734375 130.765625 L 924.734375 90.679688 " fill-opacity="1" fill-rule="nonzero"/><g clip-path="url(#fad86d7129)"><path fill="#000000" d="M 938.222656 77.191406 C 933.695312 77.191406 929.308594 78.074219 925.179688 79.820312 C 921.1875 81.507812 917.605469 83.925781 914.527344 87.003906 C 911.449219 90.082031 909.03125 93.667969 907.34375 97.65625 C 905.597656 101.785156 904.710938 106.171875 904.710938 110.699219 C 904.710938 115.222656 905.597656 119.613281 907.34375 123.742188 C 909.03125 127.730469 911.449219 131.316406 914.527344 134.394531 C 917.605469 137.472656 921.1875 139.890625 925.179688 141.578125 C 929.308594 143.324219 933.695312 144.207031 938.222656 144.207031 C 942.746094 144.207031 947.132812 143.324219 951.261719 141.578125 C 955.253906 139.890625 958.835938 137.472656 961.914062 134.394531 C 964.996094 131.316406 967.410156 127.730469 969.097656 123.742188 C 970.84375 119.613281 971.730469 115.222656 971.730469 110.699219 C 971.730469 106.171875 970.84375 101.785156 969.097656 97.65625 C 967.410156 93.667969 964.996094 90.082031 961.914062 87.003906 C 958.835938 83.925781 955.253906 81.507812 951.261719 79.820312 C 947.132812 78.074219 942.746094 77.191406 938.222656 77.191406 Z M 938.222656 151.152344 C 932.761719 151.152344 927.464844 150.082031 922.472656 147.972656 C 917.65625 145.933594 913.328125 143.019531 909.617188 139.304688 C 905.902344 135.589844 902.984375 131.265625 900.949219 126.445312 C 898.835938 121.457031 897.765625 116.160156 897.765625 110.699219 C 897.765625 105.238281 898.835938 99.941406 900.949219 94.953125 C 902.984375 90.132812 905.902344 85.808594 909.617188 82.09375 C 913.328125 78.378906 917.65625 75.460938 922.472656 73.425781 C 927.464844 71.316406 932.761719 70.246094 938.222656 70.246094 C 943.679688 70.246094 948.980469 71.316406 953.96875 73.425781 C 958.785156 75.460938 963.113281 78.378906 966.828125 82.09375 C 970.539062 85.808594 973.457031 90.132812 975.496094 94.953125 C 977.605469 99.941406 978.675781 105.238281 978.675781 110.699219 C 978.675781 116.160156 977.605469 121.457031 975.496094 126.445312 C 973.457031 131.265625 970.539062 135.589844 966.828125 139.304688 C 963.113281 143.019531 958.785156 145.933594 953.96875 147.972656 C 948.980469 150.082031 943.679688 151.152344 938.222656 151.152344 " fill-opacity="1" fill-rule="nonzero"/></g><g transform="matrix(1, 0, 0, 1, 40, 49)"><g clip-path="url(#f559709070)"><g fill="#000000" fill-opacity="1"><g transform="translate(1.088295, 98.617375)"><g><path d="M 33.21875 -96.5625 L 33.21875 -22.40625 L 73.515625 -22.40625 L 73.515625 0 L 7.46875 0 L 7.46875 -96.5625 Z M 33.21875 -96.5625 "/></g></g></g><g fill="#000000" fill-opacity="1"><g transform="translate(76.405274, 98.617375)"><g><path d="M 26 -42.234375 L 47.765625 -42.234375 C 47.765625 -45.578125 47.351562 -48 46.53125 -49.5 C 45.71875 -51 44.472656 -51.941406 42.796875 -52.328125 C 41.128906 -52.722656 39.050781 -52.921875 36.5625 -52.921875 C 32.613281 -52.921875 29.910156 -52.253906 28.453125 -50.921875 C 26.992188 -49.585938 26.175781 -46.691406 26 -42.234375 Z M 48.15625 -22.53125 L 69.90625 -22.53125 C 69.90625 -17.46875 69.109375 -13.410156 67.515625 -10.359375 C 65.929688 -7.316406 63.679688 -4.9375 60.765625 -3.21875 C 57.847656 -1.582031 54.375 -0.507812 50.34375 0 C 46.3125 0.507812 41.847656 0.765625 36.953125 0.765625 C 28.109375 0.765625 21.28125 -0.347656 16.46875 -2.578125 C 11.664062 -4.804688 8.363281 -8.453125 6.5625 -13.515625 C 4.757812 -18.578125 3.859375 -25.316406 3.859375 -33.734375 C 3.859375 -40.253906 4.328125 -45.722656 5.265625 -50.140625 C 6.210938 -54.566406 7.867188 -58.109375 10.234375 -60.765625 C 12.597656 -63.429688 15.945312 -65.363281 20.28125 -66.5625 C 24.613281 -67.757812 30.171875 -68.359375 36.953125 -68.359375 C 43.304688 -68.359375 48.601562 -67.84375 52.84375 -66.8125 C 57.09375 -65.789062 60.460938 -63.988281 62.953125 -61.40625 C 65.441406 -58.832031 67.222656 -55.289062 68.296875 -50.78125 C 69.367188 -46.28125 69.90625 -40.597656 69.90625 -33.734375 L 69.90625 -30 L 26 -30 C 26 -26.050781 26.28125 -22.957031 26.84375 -20.71875 C 27.40625 -18.488281 28.457031 -16.921875 30 -16.015625 C 31.539062 -15.117188 33.859375 -14.671875 36.953125 -14.671875 C 40.378906 -14.671875 43.101562 -15.097656 45.125 -15.953125 C 47.144531 -16.816406 48.15625 -19.007812 48.15625 -22.53125 Z M 48.15625 -22.53125 "/></g></g></g><g fill="#000000" fill-opacity="1"><g transform="translate(150.30602, 98.617375)"><g><path d="M 37.984375 -17 C 41.585938 -17 44.222656 -17.597656 45.890625 -18.796875 C 47.566406 -19.992188 48.617188 -21.816406 49.046875 -24.265625 C 49.484375 -26.710938 49.703125 -29.867188 49.703125 -33.734375 C 49.703125 -38.878906 49.378906 -42.695312 48.734375 -45.1875 C 48.085938 -47.675781 46.90625 -49.328125 45.1875 -50.140625 C 43.46875 -50.960938 41.066406 -51.375 37.984375 -51.375 C 34.546875 -51.375 32.03125 -50.984375 30.4375 -50.203125 C 28.851562 -49.429688 27.828125 -47.800781 27.359375 -45.3125 C 26.890625 -42.832031 26.65625 -38.972656 26.65625 -33.734375 C 26.65625 -29.097656 26.929688 -25.578125 27.484375 -23.171875 C 28.046875 -20.765625 29.140625 -19.132812 30.765625 -18.28125 C 32.398438 -17.425781 34.804688 -17 37.984375 -17 Z M 7.203125 6.046875 L 28.203125 6.046875 C 28.203125 7.941406 28.476562 9.425781 29.03125 10.5 C 29.59375 11.570312 30.34375 12.363281 31.28125 12.875 C 32.226562 13.300781 33.28125 13.578125 34.4375 13.703125 C 35.59375 13.835938 36.816406 13.90625 38.109375 13.90625 C 41.285156 13.90625 43.707031 13.644531 45.375 13.125 C 47.050781 12.613281 48.191406 11.5625 48.796875 9.96875 C 49.398438 8.382812 49.703125 6.050781 49.703125 2.96875 L 49.703125 -11.078125 L 48.921875 -11.078125 C 47.546875 -6.867188 45.207031 -3.96875 41.90625 -2.375 C 38.601562 -0.789062 34.804688 0 30.515625 0 C 24.503906 0 19.757812 -0.859375 16.28125 -2.578125 C 12.8125 -4.296875 10.238281 -6.675781 8.5625 -9.71875 C 6.882812 -12.769531 5.785156 -16.332031 5.265625 -20.40625 C 4.753906 -24.476562 4.5 -28.921875 4.5 -33.734375 C 4.5 -39.222656 4.78125 -44.113281 5.34375 -48.40625 C 5.90625 -52.695312 7.039062 -56.320312 8.75 -59.28125 C 10.46875 -62.25 13.066406 -64.503906 16.546875 -66.046875 C 20.023438 -67.585938 24.679688 -68.359375 30.515625 -68.359375 C 35.316406 -68.359375 39.367188 -67.539062 42.671875 -65.90625 C 45.984375 -64.28125 48.328125 -60.851562 49.703125 -55.625 L 50.46875 -55.625 L 49.703125 -67.59375 L 71.84375 -67.59375 L 71.84375 -2.96875 C 71.84375 5.445312 70.894531 12.054688 69 16.859375 C 67.113281 21.671875 63.789062 25.0625 59.03125 27.03125 C 54.269531 29.007812 47.550781 30 38.875 30 C 32.875 30 27.875 29.738281 23.875 29.21875 C 19.882812 28.707031 16.707031 27.65625 14.34375 26.0625 C 11.988281 24.476562 10.253906 22.078125 9.140625 18.859375 C 8.023438 15.640625 7.378906 11.367188 7.203125 6.046875 Z M 7.203125 6.046875 "/></g></g></g><g fill="#000000" fill-opacity="1"><g transform="translate(229.485384, 98.617375)"><g><path d="M 37.078125 -27.9375 C 34.421875 -27.9375 32.144531 -27.53125 30.25 -26.71875 C 28.363281 -25.90625 27.421875 -23.953125 27.421875 -20.859375 C 27.421875 -18.453125 28 -16.734375 29.15625 -15.703125 C 30.320312 -14.671875 31.65625 -14.046875 33.15625 -13.828125 C 34.65625 -13.617188 35.960938 -13.515625 37.078125 -13.515625 C 41.710938 -13.515625 44.890625 -14.007812 46.609375 -15 C 48.328125 -15.988281 49.1875 -18.242188 49.1875 -21.765625 C 49.1875 -24.585938 48.066406 -26.320312 45.828125 -26.96875 C 43.597656 -27.613281 40.679688 -27.9375 37.078125 -27.9375 Z M 49.1875 0 L 49.953125 -10.046875 L 49.1875 -10.046875 C 48.664062 -6.953125 47.332031 -4.628906 45.1875 -3.078125 C 43.039062 -1.535156 40.570312 -0.507812 37.78125 0 C 35 0.507812 32.316406 0.765625 29.734375 0.765625 C 24.585938 0.765625 20.191406 0.207031 16.546875 -0.90625 C 12.898438 -2.019531 10.109375 -4.078125 8.171875 -7.078125 C 6.242188 -10.085938 5.28125 -14.46875 5.28125 -20.21875 C 5.28125 -28.363281 7.359375 -33.9375 11.515625 -36.9375 C 15.679688 -39.945312 21.753906 -41.453125 29.734375 -41.453125 C 31.878906 -41.453125 34.21875 -41.363281 36.75 -41.1875 C 39.289062 -41.019531 41.632812 -40.398438 43.78125 -39.328125 C 45.925781 -38.253906 47.382812 -36.429688 48.15625 -33.859375 L 49.1875 -33.859375 L 49.1875 -44.546875 C 49.1875 -46.691406 49.015625 -48.515625 48.671875 -50.015625 C 48.328125 -51.515625 47.46875 -52.691406 46.09375 -53.546875 C 44.71875 -54.410156 42.398438 -54.84375 39.140625 -54.84375 C 36.390625 -54.84375 34.195312 -54.367188 32.5625 -53.421875 C 30.9375 -52.484375 30.125 -50.515625 30.125 -47.515625 L 7.984375 -47.515625 C 7.984375 -52.742188 8.835938 -56.796875 10.546875 -59.671875 C 12.265625 -62.546875 14.601562 -64.582031 17.5625 -65.78125 C 20.53125 -66.988281 23.878906 -67.71875 27.609375 -67.96875 C 31.347656 -68.226562 35.191406 -68.359375 39.140625 -68.359375 C 44.804688 -68.359375 49.675781 -68.078125 53.75 -67.515625 C 57.832031 -66.960938 61.160156 -65.804688 63.734375 -64.046875 C 66.304688 -62.285156 68.210938 -59.664062 69.453125 -56.1875 C 70.703125 -52.71875 71.328125 -48.066406 71.328125 -42.234375 L 71.328125 0 Z M 49.1875 0 "/></g></g></g><g fill="#000000" fill-opacity="1"><g transform="translate(307.89227, 98.617375)"><g><path d="M 29.734375 -96.5625 L 29.734375 0 L 7.59375 0 L 7.59375 -96.5625 Z M 29.734375 -96.5625 "/></g></g></g><g fill="#000000" fill-opacity="1"><g transform="translate(345.100135, 98.617375)"><g><path d="M 50.59375 -74.15625 L 50.59375 0 L 24.84375 0 L 24.84375 -74.15625 L 0.125 -74.15625 L 0.125 -96.5625 L 76.609375 -96.5625 L 76.609375 -74.15625 Z M 50.59375 -74.15625 "/></g></g></g><g fill="#000000" fill-opacity="1"><g transform="translate(416.297187, 98.617375)"><g><path d="M 43.125 -38.109375 L 43.125 -41.328125 C 43.125 -42.960938 43.0625 -44.53125 42.9375 -46.03125 C 42.8125 -47.53125 42.359375 -48.796875 41.578125 -49.828125 C 40.804688 -50.859375 39.394531 -51.375 37.34375 -51.375 C 33.988281 -51.375 31.773438 -50.253906 30.703125 -48.015625 C 29.628906 -45.785156 29.09375 -43.300781 29.09375 -40.5625 L 29.09375 0 L 6.953125 0 L 6.953125 -67.59375 L 28.453125 -67.59375 L 28.453125 -57.6875 L 29.359375 -57.6875 C 30.898438 -61.457031 33.085938 -64.203125 35.921875 -65.921875 C 38.671875 -67.546875 42.144531 -68.359375 46.34375 -68.359375 C 50.207031 -68.359375 53.253906 -67.648438 55.484375 -66.234375 C 57.722656 -64.828125 59.398438 -62.921875 60.515625 -60.515625 C 61.628906 -58.109375 62.335938 -55.425781 62.640625 -52.46875 C 62.941406 -49.507812 63.09375 -46.484375 63.09375 -43.390625 L 63.09375 -38.109375 Z M 43.125 -38.109375 "/></g></g></g><g fill="#000000" fill-opacity="1"><g transform="translate(480.799391, 98.617375)"><g><path d="M 37.078125 -27.9375 C 34.421875 -27.9375 32.144531 -27.53125 30.25 -26.71875 C 28.363281 -25.90625 27.421875 -23.953125 27.421875 -20.859375 C 27.421875 -18.453125 28 -16.734375 29.15625 -15.703125 C 30.320312 -14.671875 31.65625 -14.046875 33.15625 -13.828125 C 34.65625 -13.617188 35.960938 -13.515625 37.078125 -13.515625 C 41.710938 -13.515625 44.890625 -14.007812 46.609375 -15 C 48.328125 -15.988281 49.1875 -18.242188 49.1875 -21.765625 C 49.1875 -24.585938 48.066406 -26.320312 45.828125 -26.96875 C 43.597656 -27.613281 40.679688 -27.9375 37.078125 -27.9375 Z M 49.1875 0 L 49.953125 -10.046875 L 49.1875 -10.046875 C 48.664062 -6.953125 47.332031 -4.628906 45.1875 -3.078125 C 43.039062 -1.535156 40.570312 -0.507812 37.78125 0 C 35 0.507812 32.316406 0.765625 29.734375 0.765625 C 24.585938 0.765625 20.191406 0.207031 16.546875 -0.90625 C 12.898438 -2.019531 10.109375 -4.078125 8.171875 -7.078125 C 6.242188 -10.085938 5.28125 -14.46875 5.28125 -20.21875 C 5.28125 -28.363281 7.359375 -33.9375 11.515625 -36.9375 C 15.679688 -39.945312 21.753906 -41.453125 29.734375 -41.453125 C 31.878906 -41.453125 34.21875 -41.363281 36.75 -41.1875 C 39.289062 -41.019531 41.632812 -40.398438 43.78125 -39.328125 C 45.925781 -38.253906 47.382812 -36.429688 48.15625 -33.859375 L 49.1875 -33.859375 L 49.1875 -44.546875 C 49.1875 -46.691406 49.015625 -48.515625 48.671875 -50.015625 C 48.328125 -51.515625 47.46875 -52.691406 46.09375 -53.546875 C 44.71875 -54.410156 42.398438 -54.84375 39.140625 -54.84375 C 36.390625 -54.84375 34.195312 -54.367188 32.5625 -53.421875 C 30.9375 -52.484375 30.125 -50.515625 30.125 -47.515625 L 7.984375 -47.515625 C 7.984375 -52.742188 8.835938 -56.796875 10.546875 -59.671875 C 12.265625 -62.546875 14.601562 -64.582031 17.5625 -65.78125 C 20.53125 -66.988281 23.878906 -67.71875 27.609375 -67.96875 C 31.347656 -68.226562 35.191406 -68.359375 39.140625 -68.359375 C 44.804688 -68.359375 49.675781 -68.078125 53.75 -67.515625 C 57.832031 -66.960938 61.160156 -65.804688 63.734375 -64.046875 C 66.304688 -62.285156 68.210938 -59.664062 69.453125 -56.1875 C 70.703125 -52.71875 71.328125 -48.066406 71.328125 -42.234375 L 71.328125 0 Z M 49.1875 0 "/></g></g></g><g fill="#000000" fill-opacity="1"><g transform="translate(559.206277, 98.617375)"><g><path d="M 46.859375 -27.03125 L 69.015625 -27.03125 C 69.015625 -20.769531 68.429688 -15.789062 67.265625 -12.09375 C 66.109375 -8.40625 64.203125 -5.617188 61.546875 -3.734375 C 58.972656 -1.847656 55.625 -0.625 51.5 -0.0625 C 47.375 0.488281 42.3125 0.765625 36.3125 0.765625 C 29.78125 0.765625 24.410156 0.207031 20.203125 -0.90625 C 16.003906 -2.019531 12.722656 -3.882812 10.359375 -6.5 C 8.003906 -9.113281 6.351562 -12.628906 5.40625 -17.046875 C 4.457031 -21.472656 3.984375 -27.035156 3.984375 -33.734375 C 3.984375 -39.484375 4.390625 -44.503906 5.203125 -48.796875 C 6.023438 -53.085938 7.550781 -56.691406 9.78125 -59.609375 C 12.007812 -62.523438 15.25 -64.710938 19.5 -66.171875 C 23.75 -67.628906 29.351562 -68.359375 36.3125 -68.359375 C 41.195312 -68.359375 45.632812 -68.101562 49.625 -67.59375 C 53.625 -67.082031 57.0625 -65.988281 59.9375 -64.3125 C 62.8125 -62.632812 65.039062 -60.035156 66.625 -56.515625 C 68.21875 -53.003906 69.015625 -48.242188 69.015625 -42.234375 L 46.859375 -42.234375 C 46.953125 -45.835938 46.351562 -48.238281 45.0625 -49.4375 C 43.6875 -50.726562 40.769531 -51.375 36.3125 -51.375 C 33.726562 -51.375 31.6875 -50.984375 30.1875 -50.203125 C 28.6875 -49.429688 27.632812 -47.78125 27.03125 -45.25 C 26.4375 -42.71875 26.140625 -38.878906 26.140625 -33.734375 C 26.140625 -28.492188 26.394531 -24.628906 26.90625 -22.140625 C 27.425781 -19.648438 28.414062 -18.039062 29.875 -17.3125 C 31.332031 -16.582031 33.476562 -16.21875 36.3125 -16.21875 C 39.65625 -16.21875 42.078125 -16.539062 43.578125 -17.1875 C 45.078125 -17.832031 46 -18.945312 46.34375 -20.53125 C 46.6875 -22.125 46.859375 -24.289062 46.859375 -27.03125 Z M 46.859375 -27.03125 "/></g></g></g><g fill="#000000" fill-opacity="1"><g transform="translate(630.918315, 98.617375)"><g><path d="M 29.21875 -96.5625 L 29.21875 -42.234375 L 33.09375 -42.234375 L 46.484375 -67.59375 L 70.8125 -67.59375 L 51.75 -35.15625 L 75.1875 0 L 49.3125 0 L 33.09375 -27.421875 L 29.21875 -27.421875 L 29.21875 0 L 7.078125 0 L 7.078125 -96.5625 Z M 29.21875 -96.5625 "/></g></g></g><g fill="#000000" fill-opacity="1"><g transform="translate(707.136494, 98.617375)"><g><path d="M 26 -42.234375 L 47.765625 -42.234375 C 47.765625 -45.578125 47.351562 -48 46.53125 -49.5 C 45.71875 -51 44.472656 -51.941406 42.796875 -52.328125 C 41.128906 -52.722656 39.050781 -52.921875 36.5625 -52.921875 C 32.613281 -52.921875 29.910156 -52.253906 28.453125 -50.921875 C 26.992188 -49.585938 26.175781 -46.691406 26 -42.234375 Z M 48.15625 -22.53125 L 69.90625 -22.53125 C 69.90625 -17.46875 69.109375 -13.410156 67.515625 -10.359375 C 65.929688 -7.316406 63.679688 -4.9375 60.765625 -3.21875 C 57.847656 -1.582031 54.375 -0.507812 50.34375 0 C 46.3125 0.507812 41.847656 0.765625 36.953125 0.765625 C 28.109375 0.765625 21.28125 -0.347656 16.46875 -2.578125 C 11.664062 -4.804688 8.363281 -8.453125 6.5625 -13.515625 C 4.757812 -18.578125 3.859375 -25.316406 3.859375 -33.734375 C 3.859375 -40.253906 4.328125 -45.722656 5.265625 -50.140625 C 6.210938 -54.566406 7.867188 -58.109375 10.234375 -60.765625 C 12.597656 -63.429688 15.945312 -65.363281 20.28125 -66.5625 C 24.613281 -67.757812 30.171875 -68.359375 36.953125 -68.359375 C 43.304688 -68.359375 48.601562 -67.84375 52.84375 -66.8125 C 57.09375 -65.789062 60.460938 -63.988281 62.953125 -61.40625 C 65.441406 -58.832031 67.222656 -55.289062 68.296875 -50.78125 C 69.367188 -46.28125 69.90625 -40.597656 69.90625 -33.734375 L 69.90625 -30 L 26 -30 C 26 -26.050781 26.28125 -22.957031 26.84375 -20.71875 C 27.40625 -18.488281 28.457031 -16.921875 30 -16.015625 C 31.539062 -15.117188 33.859375 -14.671875 36.953125 -14.671875 C 40.378906 -14.671875 43.101562 -15.097656 45.125 -15.953125 C 47.144531 -16.816406 48.15625 -19.007812 48.15625 -22.53125 Z M 48.15625 -22.53125 "/></g></g></g><g fill="#000000" fill-opacity="1"><g transform="translate(781.03724, 98.617375)"><g><path d="M 43.125 -38.109375 L 43.125 -41.328125 C 43.125 -42.960938 43.0625 -44.53125 42.9375 -46.03125 C 42.8125 -47.53125 42.359375 -48.796875 41.578125 -49.828125 C 40.804688 -50.859375 39.394531 -51.375 37.34375 -51.375 C 33.988281 -51.375 31.773438 -50.253906 30.703125 -48.015625 C 29.628906 -45.785156 29.09375 -43.300781 29.09375 -40.5625 L 29.09375 0 L 6.953125 0 L 6.953125 -67.59375 L 28.453125 -67.59375 L 28.453125 -57.6875 L 29.359375 -57.6875 C 30.898438 -61.457031 33.085938 -64.203125 35.921875 -65.921875 C 38.671875 -67.546875 42.144531 -68.359375 46.34375 -68.359375 C 50.207031 -68.359375 53.253906 -67.648438 55.484375 -66.234375 C 57.722656 -64.828125 59.398438 -62.921875 60.515625 -60.515625 C 61.628906 -58.109375 62.335938 -55.425781 62.640625 -52.46875 C 62.941406 -49.507812 63.09375 -46.484375 63.09375 -43.390625 L 63.09375 -38.109375 Z M 43.125 -38.109375 "/></g></g></g></g></g></svg>